<svg width="18" height="15" viewBox="0 0 18 15" fill="none" xmlns="http://www.w3.org/2000/svg">
<path d="M17.834 7.46996C17.834 7.86548 17.5401 8.19235 17.1587 8.24408L17.0527 8.25121L3.3194 8.25059L8.28085 13.1918C8.5866 13.4962 8.58766 13.9909 8.28323 14.2966C8.00646 14.5746 7.57249 14.6007 7.26616 14.3744L7.17837 14.299L0.876291 8.02399C0.835987 7.98386 0.800982 7.94043 0.771271 7.89457C0.76288 7.88076 0.754337 7.86664 0.746239 7.85223C0.738791 7.83988 0.732059 7.82706 0.72571 7.81409C0.71689 7.79523 0.708273 7.77574 0.700449 7.75585C0.694092 7.74052 0.688784 7.72561 0.683943 7.71058C0.678186 7.69194 0.672594 7.67207 0.667784 7.65191C0.664207 7.63783 0.661375 7.62428 0.658905 7.61067C0.65543 7.59043 0.652473 7.56949 0.650364 7.54829C0.64854 7.53213 0.647446 7.51611 0.646839 7.50008C0.646683 7.49036 0.646484 7.48018 0.646484 7.46996L0.646877 7.4397C0.647476 7.42436 0.648523 7.40904 0.650019 7.39376L0.646484 7.46996C0.646484 7.42066 0.651052 7.37243 0.659784 7.32566C0.66181 7.31449 0.664223 7.30302 0.666895 7.2916C0.672445 7.26808 0.678858 7.24544 0.686243 7.22323C0.689867 7.2122 0.69409 7.20042 0.698603 7.18872C0.707733 7.16521 0.717655 7.1428 0.728573 7.12097C0.733644 7.11071 0.739325 7.09996 0.745272 7.08933C0.755035 7.07198 0.765093 7.05549 0.775728 7.03941C0.783232 7.02804 0.79154 7.0162 0.800217 7.00454L0.806978 6.99554C0.828026 6.96804 0.850861 6.94198 0.875307 6.91753L0.876245 6.91681L7.17833 0.640766C7.48406 0.336301 7.97871 0.337326 8.28318 0.643054C8.55997 0.920988 8.58428 1.35506 8.35672 1.66044L8.28089 1.74791L3.32148 6.68809L17.0527 6.68871C17.4842 6.68871 17.834 7.03849 17.834 7.46996Z" fill="#BA808E"/>
</svg>
