<svg width="17" height="15" viewBox="0 0 17 15" fill="none" xmlns="http://www.w3.org/2000/svg">
<path d="M17 7.2746C17 7.6543 16.7178 7.96809 16.3518 8.01775L16.25 8.0246L3.066 8.024L7.82899 12.7675C8.12251 13.0598 8.12353 13.5347 7.83127 13.8282C7.56558 14.095 7.14897 14.1201 6.85489 13.9029L6.77061 13.8305L0.720613 7.80647C0.681923 7.76795 0.648317 7.72625 0.619795 7.68222C0.611738 7.66897 0.603539 7.65541 0.595764 7.64158C0.588614 7.62972 0.582151 7.61741 0.576056 7.60497C0.567589 7.58686 0.559317 7.56815 0.551805 7.54906C0.545702 7.53434 0.540607 7.52002 0.535959 7.50559C0.530434 7.4877 0.525064 7.46863 0.520447 7.44927C0.517014 7.43575 0.514294 7.42275 0.511923 7.40969C0.508587 7.39025 0.505749 7.37015 0.503723 7.3498C0.501974 7.33428 0.500921 7.31891 0.50034 7.30352C0.500189 7.29418 0.5 7.28441 0.5 7.2746L0.500376 7.24555C0.50095 7.23083 0.501955 7.21612 0.503393 7.20145L0.5 7.2746C0.5 7.22727 0.504383 7.18097 0.512768 7.13607C0.514711 7.12535 0.517029 7.11434 0.519594 7.10338C0.524921 7.0808 0.531078 7.05906 0.538168 7.03774C0.541647 7.02715 0.545702 7.01584 0.550034 7.00461C0.558798 6.98204 0.568325 6.96053 0.578804 6.93957C0.583673 6.92972 0.589125 6.9194 0.594835 6.90919C0.604208 6.89253 0.613863 6.8767 0.624073 6.86127C0.631277 6.85035 0.639254 6.83899 0.647583 6.8278L0.654074 6.81915C0.67428 6.79276 0.696201 6.76774 0.719669 6.74427L0.72057 6.74357L6.77057 0.718573C7.06407 0.426287 7.53894 0.42727 7.83123 0.720769C8.09694 0.987586 8.12029 1.4043 7.90182 1.69746L7.82903 1.78143L3.068 6.524L16.25 6.5246C16.6642 6.5246 17 6.86039 17 7.2746Z" fill="#27272F"/>
</svg>
