<svg width="24" height="25" viewBox="0 0 24 25" fill="none" xmlns="http://www.w3.org/2000/svg">
<path opacity="0.7" d="M12.9272 19.352L14.25 22.4336H9.75L11.0709 19.352C7.36781 18.7005 4.5 14.2614 4.5 10.4336C4.5 8.44447 5.29018 6.53682 6.6967 5.13029C8.10322 3.72377 10.0109 2.93359 12 2.93359C13.9891 2.93359 15.8968 3.72377 17.3033 5.13029C18.7098 6.53682 19.5 8.44447 19.5 10.4336C19.5 14.2614 16.6322 18.7005 12.9272 19.352Z" fill="#CEB6E6"/>
<path d="M12 2.18359C9.81273 2.18608 7.71575 3.05607 6.16911 4.6027C4.62247 6.14934 3.75248 8.24632 3.75 10.4336C3.75 12.6302 4.63125 15.0667 6.10594 16.9492C7.23844 18.3939 8.59031 19.3867 10.035 19.8639L9.06094 22.1383C9.01208 22.2523 8.99229 22.3767 9.00332 22.5003C9.01436 22.6239 9.05588 22.7428 9.12416 22.8464C9.19245 22.95 9.28536 23.035 9.39459 23.0938C9.50381 23.1527 9.62593 23.1835 9.75 23.1836H14.25C14.3741 23.1835 14.4962 23.1527 14.6054 23.0938C14.7146 23.035 14.8076 22.95 14.8758 22.8464C14.9441 22.7428 14.9856 22.6239 14.9967 22.5003C15.0077 22.3767 14.9879 22.2523 14.9391 22.1383L13.9688 19.8639C15.4125 19.3886 16.7653 18.3939 17.8978 16.9492C19.3688 15.0667 20.25 12.6302 20.25 10.4336C20.2475 8.24632 19.3775 6.14934 17.8309 4.6027C16.2843 3.05607 14.1873 2.18608 12 2.18359ZM13.1128 21.6836H10.8872L11.5378 20.1658C11.6916 20.177 11.8453 20.1836 12 20.1836C12.1547 20.1836 12.3084 20.177 12.4622 20.1658L13.1128 21.6836ZM16.7128 16.0239C15.3694 17.7395 13.6959 18.6836 12 18.6836C10.3041 18.6836 8.63063 17.7395 7.28719 16.0239C6.01125 14.3964 5.25 12.3086 5.25 10.4336C5.25 8.64338 5.96116 6.92649 7.22703 5.66062C8.4929 4.39475 10.2098 3.68359 12 3.68359C13.7902 3.68359 15.5071 4.39475 16.773 5.66062C18.0388 6.92649 18.75 8.64338 18.75 10.4336C18.75 12.3086 17.9888 14.3964 16.7128 16.0239ZM16.6191 10.4233C16.5797 10.4297 16.5399 10.4331 16.5 10.4336C16.3227 10.4334 16.1512 10.3703 16.016 10.2557C15.8808 10.1411 15.7905 9.98221 15.7612 9.80734C15.6226 9.02691 15.2477 8.30785 14.6872 7.74736C14.1267 7.18686 13.4076 6.81195 12.6272 6.67328C12.5293 6.65784 12.4355 6.62316 12.3511 6.57125C12.2667 6.51933 12.1934 6.45121 12.1355 6.37082C12.0776 6.29043 12.0362 6.19937 12.0137 6.10288C11.9912 6.0064 11.988 5.90641 12.0044 5.80869C12.0207 5.71097 12.0563 5.61746 12.109 5.53356C12.1616 5.44966 12.2304 5.37703 12.3114 5.31987C12.3923 5.2627 12.4837 5.22214 12.5804 5.20052C12.6771 5.1789 12.7771 5.17665 12.8747 5.19391C13.962 5.38683 14.9638 5.90903 15.7447 6.68988C16.5255 7.47072 17.0477 8.47254 17.2406 9.55984C17.2569 9.65705 17.2538 9.7565 17.2316 9.85251C17.2093 9.94853 17.1684 10.0392 17.1111 10.1194C17.0538 10.1996 16.9813 10.2677 16.8977 10.3198C16.8141 10.372 16.721 10.4071 16.6238 10.4233H16.6191Z" fill="#27272F"/>
</svg>
