<svg width="22" height="20" viewBox="0 0 22 20" fill="none" xmlns="http://www.w3.org/2000/svg">
<path d="M1.25 4.58301H4.5M4.5 4.58301C4.5 6.37793 5.95507 7.83301 7.75 7.83301C9.54493 7.83301 11 6.37793 11 4.58301C11 2.78808 9.54493 1.33301 7.75 1.33301C5.95507 1.33301 4.5 2.78808 4.5 4.58301ZM1.25 15.4163H7.75M17.5 15.4163H20.75M17.5 15.4163C17.5 17.2113 16.0449 18.6663 14.25 18.6663C12.4551 18.6663 11 17.2113 11 15.4163C11 13.6214 12.4551 12.1663 14.25 12.1663C16.0449 12.1663 17.5 13.6214 17.5 15.4163ZM14.25 4.58301H20.75" stroke="#27272F" stroke-width="1.5" stroke-linecap="round"/>
</svg>
