<svg width="24" height="25" viewBox="0 0 24 25" fill="none" xmlns="http://www.w3.org/2000/svg">
<path opacity="0.7" d="M19.5 12.6836V19.4336C19.5 19.6325 19.421 19.8233 19.2803 19.9639C19.1397 20.1046 18.9489 20.1836 18.75 20.1836H5.25C5.05109 20.1836 4.86032 20.1046 4.71967 19.9639C4.57902 19.8233 4.5 19.6325 4.5 19.4336V12.6836H19.5Z" fill="#6378AF"/>
<path d="M20.25 7.43393H16.9612C16.9978 7.40299 17.0353 7.37299 17.0709 7.34018C17.3557 7.08722 17.5851 6.77823 17.745 6.43254C17.9049 6.08685 17.9917 5.71189 18 5.33111C18.0123 4.91456 17.9394 4.49988 17.7856 4.11254C17.6319 3.7252 17.4006 3.37337 17.106 3.07864C16.8113 2.78392 16.4596 2.55253 16.0723 2.39867C15.685 2.24481 15.2703 2.17174 14.8538 2.18393C14.4728 2.19213 14.0977 2.27888 13.7518 2.43875C13.406 2.59861 13.0968 2.82815 12.8438 3.11299C12.4936 3.51883 12.2089 3.97684 12 4.47049C11.7911 3.97684 11.5064 3.51883 11.1562 3.11299C10.9032 2.82815 10.594 2.59861 10.2482 2.43875C9.90232 2.27888 9.52718 2.19213 9.14625 2.18393C8.72969 2.17174 8.31503 2.24481 7.92774 2.39867C7.54044 2.55253 7.18868 2.78392 6.89405 3.07864C6.59941 3.37337 6.36812 3.7252 6.21438 4.11254C6.06064 4.49988 5.98768 4.91456 6 5.33111C6.00833 5.71189 6.09514 6.08685 6.255 6.43254C6.41486 6.77823 6.64434 7.08722 6.92906 7.34018C6.96469 7.37111 7.00219 7.40111 7.03875 7.43393H3.75C3.35218 7.43393 2.97064 7.59196 2.68934 7.87327C2.40804 8.15457 2.25 8.5361 2.25 8.93393V11.9339C2.25 12.3318 2.40804 12.7133 2.68934 12.9946C2.97064 13.2759 3.35218 13.4339 3.75 13.4339V19.4339C3.75 19.8318 3.90804 20.2133 4.18934 20.4946C4.47064 20.7759 4.85218 20.9339 5.25 20.9339H18.75C19.1478 20.9339 19.5294 20.7759 19.8107 20.4946C20.092 20.2133 20.25 19.8318 20.25 19.4339V13.4339C20.6478 13.4339 21.0294 13.2759 21.3107 12.9946C21.592 12.7133 21.75 12.3318 21.75 11.9339V8.93393C21.75 8.5361 21.592 8.15457 21.3107 7.87327C21.0294 7.59196 20.6478 7.43393 20.25 7.43393ZM13.9688 4.10674C14.0875 3.9756 14.2321 3.87043 14.3934 3.79783C14.5547 3.72523 14.7293 3.68677 14.9062 3.68486H14.9522C15.1595 3.68616 15.3645 3.72883 15.5552 3.81037C15.7458 3.89191 15.9183 4.01068 16.0624 4.15972C16.2066 4.30876 16.3195 4.48508 16.3947 4.67834C16.4698 4.87159 16.5056 5.0779 16.5 5.28518C16.4981 5.46208 16.4596 5.63668 16.387 5.79801C16.3144 5.95934 16.2093 6.10393 16.0781 6.22268C15.1884 7.01018 13.7119 7.28768 12.7969 7.38518C12.9094 6.39236 13.2188 4.94955 13.9688 4.10674ZM7.96031 4.14049C8.25088 3.84995 8.64441 3.68587 9.05531 3.68393H9.10125C9.27815 3.68583 9.45275 3.7243 9.61409 3.79689C9.77542 3.86949 9.92 3.97466 10.0388 4.1058C10.8253 4.99455 11.1028 6.4683 11.2003 7.37955C10.2891 7.2858 8.81531 7.00455 7.92656 6.21799C7.79543 6.09924 7.69026 5.95466 7.61766 5.79332C7.54506 5.63199 7.5066 5.45739 7.50469 5.28049C7.49887 5.06977 7.53593 4.86007 7.61361 4.6641C7.69128 4.46814 7.80796 4.29 7.95656 4.14049H7.96031ZM3.75 8.93393H11.25V11.9339H3.75V8.93393ZM5.25 13.4339H11.25V19.4339H5.25V13.4339ZM18.75 19.4339H12.75V13.4339H18.75V19.4339ZM20.25 11.9339H12.75V8.93393H20.25V11.9339Z" fill="#343330"/>
</svg>
