<svg width="32" height="32" viewBox="0 0 32 32" fill="none" xmlns="http://www.w3.org/2000/svg">
<rect width="32" height="32" rx="15.9831" fill="#BA808E"/>
<g filter="url(#filter0_dddd_1671_4809)">
<rect width="16.4202" height="10.9468" rx="0.912234" transform="matrix(1 0 0 -1 7.79004 21.4746)" fill="url(#paint0_linear_1671_4809)"/>
<rect x="-0.0570146" y="0.0570146" width="16.5342" height="11.0608" rx="0.969249" transform="matrix(1 0 0 -1 7.79004 21.5886)" stroke="url(#paint1_linear_1671_4809)" stroke-width="0.114029"/>
</g>
<mask id="mask0_1671_4809" style="mask-type:alpha" maskUnits="userSpaceOnUse" x="7" y="10" width="18" height="12">
<rect x="7.79004" y="10.5273" width="16.4202" height="10.9468" rx="0.912234" fill="black"/>
</mask>
<g mask="url(#mask0_1671_4809)">
<g opacity="0.4">
<g filter="url(#filter1_f_1671_4809)">
<path d="M8.13232 21.4727H23.8684L16.9759 15.2794C16.631 14.9695 16.4586 14.8146 16.2636 14.7558C16.0919 14.7041 15.9088 14.7041 15.737 14.7558C15.5421 14.8146 15.3697 14.9695 15.0248 15.2794L8.13232 21.4727Z" fill="#334155" fill-opacity="0.4"/>
</g>
<g filter="url(#filter2_f_1671_4809)">
<path d="M9.04443 21.4727H22.956L17.0867 14.9298C16.7106 14.5105 16.5225 14.3009 16.3009 14.2235C16.1062 14.1556 15.8942 14.1556 15.6996 14.2235C15.4779 14.3009 15.2899 14.5105 14.9137 14.9298L9.04443 21.4727Z" fill="#334155" fill-opacity="0.2"/>
</g>
<g filter="url(#filter3_f_1671_4809)">
<path d="M8.13232 21.4727H23.8684L17.0679 14.1794C16.6968 13.7814 16.5113 13.5824 16.2943 13.5086C16.1037 13.4437 15.897 13.4437 15.7063 13.5086C15.4894 13.5824 15.3039 13.7814 14.9328 14.1794L8.13232 21.4727Z" fill="#334155" fill-opacity="0.1"/>
</g>
</g>
<path d="M7.79004 21.4746H24.2103L16.9526 15.2249C16.6146 14.9339 16.4457 14.7884 16.2561 14.733C16.089 14.6842 15.9113 14.6842 15.7442 14.733C15.5546 14.7884 15.3856 14.9339 15.0477 15.2249L7.79004 21.4746Z" fill="url(#paint2_linear_1671_4809)"/>
<path d="M7.96094 21.2464L15.0484 15.1643C15.3861 14.8745 15.5549 14.7296 15.7443 14.6745C15.9112 14.6259 16.0885 14.626 16.2553 14.6748C16.4447 14.7301 16.6133 14.8752 16.9507 15.1654L24.1531 21.3605" stroke="#475569" stroke-opacity="0.06" stroke-width="0.114029"/>
<g style="mix-blend-mode:multiply" opacity="0.7">
<g filter="url(#filter4_f_1671_4809)">
<path d="M8.13135 10.5273L23.8674 10.5273L16.9749 16.7206C16.63 17.0305 16.4576 17.1854 16.2627 17.2442C16.091 17.2959 15.9078 17.2959 15.7361 17.2442C15.5411 17.1854 15.3687 17.0305 15.0238 16.7206L8.13135 10.5273Z" fill="#334155" fill-opacity="0.4"/>
</g>
<g filter="url(#filter5_f_1671_4809)">
<path d="M9.04346 10.5273L22.955 10.5273L17.0857 17.0702C16.7096 17.4895 16.5215 17.6991 16.2999 17.7765C16.1052 17.8444 15.8933 17.8444 15.6986 17.7765C15.477 17.6991 15.2889 17.4895 14.9128 17.0702L9.04346 10.5273Z" fill="#334155" fill-opacity="0.2"/>
</g>
<g filter="url(#filter6_f_1671_4809)">
<path d="M8.13135 10.5273L23.8674 10.5273L17.0669 17.8206C16.6958 18.2186 16.5103 18.4176 16.2934 18.4914C16.1027 18.5563 15.896 18.5563 15.7054 18.4914C15.4884 18.4176 15.3029 18.2186 14.9319 17.8206L8.13135 10.5273Z" fill="#334155" fill-opacity="0.1"/>
</g>
<g filter="url(#filter7_f_1671_4809)">
<path d="M8.70117 10.5273L23.2969 10.5273L16.504 17.9571C16.2327 18.2538 15.7654 18.2538 15.4941 17.9571L8.70117 10.5273Z" fill="#334155" fill-opacity="0.05"/>
</g>
<g filter="url(#filter8_f_1671_4809)">
<path d="M8.01709 10.4141L23.9812 10.4141L16.4647 17.3937C16.2022 17.6374 15.7961 17.6374 15.5336 17.3937L8.01709 10.4141Z" fill="#334155" fill-opacity="0.1"/>
</g>
</g>
<path d="M7.96094 10.7555L15.0484 16.8377C15.3861 17.1274 15.5549 17.2723 15.7443 17.3275C15.9112 17.3761 16.0885 17.376 16.2553 17.3272C16.4447 17.2718 16.6133 17.1267 16.9507 16.8366L24.1531 10.6415" stroke="#475569" stroke-opacity="0.06" stroke-width="0.114029"/>
<path d="M7.79004 10.5293L24.2103 10.5293L16.9526 16.779C16.6146 17.07 16.4457 17.2154 16.2561 17.2709C16.089 17.3197 15.9113 17.3197 15.7442 17.2709C15.5546 17.2154 15.3856 17.07 15.0477 16.779L7.79004 10.5293Z" fill="url(#paint3_linear_1671_4809)"/>
<g filter="url(#filter9_f_1671_4809)">
<rect x="7.79004" y="10.5273" width="16.4202" height="10.9468" stroke="url(#paint4_linear_1671_4809)" stroke-width="1.82447"/>
</g>
<rect x="7.84705" y="10.5844" width="16.3062" height="10.8328" rx="0.855219" stroke="white" stroke-opacity="0.4" stroke-width="0.114029"/>
</g>
<defs>
<filter id="filter0_dddd_1671_4809" x="6.30743" y="10.186" width="19.3851" height="16.1911" filterUnits="userSpaceOnUse" color-interpolation-filters="sRGB">
<feFlood flood-opacity="0" result="BackgroundImageFix"/>
<feColorMatrix in="SourceAlpha" type="matrix" values="0 0 0 0 0 0 0 0 0 0 0 0 0 0 0 0 0 0 127 0" result="hardAlpha"/>
<feOffset dy="0.228059"/>
<feGaussianBlur stdDeviation="0.228059"/>
<feColorMatrix type="matrix" values="0 0 0 0 0.117647 0 0 0 0 0.160784 0 0 0 0 0.231373 0 0 0 0.08 0"/>
<feBlend mode="normal" in2="BackgroundImageFix" result="effect1_dropShadow_1671_4809"/>
<feColorMatrix in="SourceAlpha" type="matrix" values="0 0 0 0 0 0 0 0 0 0 0 0 0 0 0 0 0 0 127 0" result="hardAlpha"/>
<feOffset dy="0.912234"/>
<feGaussianBlur stdDeviation="0.456117"/>
<feColorMatrix type="matrix" values="0 0 0 0 0.117647 0 0 0 0 0.160784 0 0 0 0 0.231373 0 0 0 0.07 0"/>
<feBlend mode="normal" in2="effect1_dropShadow_1671_4809" result="effect2_dropShadow_1671_4809"/>
<feColorMatrix in="SourceAlpha" type="matrix" values="0 0 0 0 0 0 0 0 0 0 0 0 0 0 0 0 0 0 127 0" result="hardAlpha"/>
<feOffset dy="1.9385"/>
<feGaussianBlur stdDeviation="0.570146"/>
<feColorMatrix type="matrix" values="0 0 0 0 0.117647 0 0 0 0 0.160784 0 0 0 0 0.231373 0 0 0 0.04 0"/>
<feBlend mode="normal" in2="effect2_dropShadow_1671_4809" result="effect3_dropShadow_1671_4809"/>
<feColorMatrix in="SourceAlpha" type="matrix" values="0 0 0 0 0 0 0 0 0 0 0 0 0 0 0 0 0 0 127 0" result="hardAlpha"/>
<feOffset dy="3.42088"/>
<feGaussianBlur stdDeviation="0.684176"/>
<feColorMatrix type="matrix" values="0 0 0 0 0.117647 0 0 0 0 0.160784 0 0 0 0 0.231373 0 0 0 0.01 0"/>
<feBlend mode="normal" in2="effect3_dropShadow_1671_4809" result="effect4_dropShadow_1671_4809"/>
<feBlend mode="normal" in="SourceGraphic" in2="effect4_dropShadow_1671_4809" result="shape"/>
</filter>
<filter id="filter1_f_1671_4809" x="7.67621" y="14.2607" width="16.6481" height="7.66809" filterUnits="userSpaceOnUse" color-interpolation-filters="sRGB">
<feFlood flood-opacity="0" result="BackgroundImageFix"/>
<feBlend mode="normal" in="SourceGraphic" in2="BackgroundImageFix" result="shape"/>
<feGaussianBlur stdDeviation="0.228059" result="effect1_foregroundBlur_1671_4809"/>
</filter>
<filter id="filter2_f_1671_4809" x="7.67608" y="12.8035" width="16.6483" height="10.0375" filterUnits="userSpaceOnUse" color-interpolation-filters="sRGB">
<feFlood flood-opacity="0" result="BackgroundImageFix"/>
<feBlend mode="normal" in="SourceGraphic" in2="BackgroundImageFix" result="shape"/>
<feGaussianBlur stdDeviation="0.684176" result="effect1_foregroundBlur_1671_4809"/>
</filter>
<filter id="filter3_f_1671_4809" x="5.39562" y="10.7223" width="21.2092" height="13.4871" filterUnits="userSpaceOnUse" color-interpolation-filters="sRGB">
<feFlood flood-opacity="0" result="BackgroundImageFix"/>
<feBlend mode="normal" in="SourceGraphic" in2="BackgroundImageFix" result="shape"/>
<feGaussianBlur stdDeviation="1.36835" result="effect1_foregroundBlur_1671_4809"/>
</filter>
<filter id="filter4_f_1671_4809" x="7.67523" y="10.0712" width="16.6481" height="7.66809" filterUnits="userSpaceOnUse" color-interpolation-filters="sRGB">
<feFlood flood-opacity="0" result="BackgroundImageFix"/>
<feBlend mode="normal" in="SourceGraphic" in2="BackgroundImageFix" result="shape"/>
<feGaussianBlur stdDeviation="0.228059" result="effect1_foregroundBlur_1671_4809"/>
</filter>
<filter id="filter5_f_1671_4809" x="7.67511" y="9.15899" width="16.6483" height="10.0375" filterUnits="userSpaceOnUse" color-interpolation-filters="sRGB">
<feFlood flood-opacity="0" result="BackgroundImageFix"/>
<feBlend mode="normal" in="SourceGraphic" in2="BackgroundImageFix" result="shape"/>
<feGaussianBlur stdDeviation="0.684176" result="effect1_foregroundBlur_1671_4809"/>
</filter>
<filter id="filter6_f_1671_4809" x="5.39465" y="7.79064" width="21.2092" height="13.4871" filterUnits="userSpaceOnUse" color-interpolation-filters="sRGB">
<feFlood flood-opacity="0" result="BackgroundImageFix"/>
<feBlend mode="normal" in="SourceGraphic" in2="BackgroundImageFix" result="shape"/>
<feGaussianBlur stdDeviation="1.36835" result="effect1_foregroundBlur_1671_4809"/>
</filter>
<filter id="filter7_f_1671_4809" x="7.56088" y="9.38705" width="16.8763" height="9.93293" filterUnits="userSpaceOnUse" color-interpolation-filters="sRGB">
<feFlood flood-opacity="0" result="BackgroundImageFix"/>
<feBlend mode="normal" in="SourceGraphic" in2="BackgroundImageFix" result="shape"/>
<feGaussianBlur stdDeviation="0.570146" result="effect1_foregroundBlur_1671_4809"/>
</filter>
<filter id="filter8_f_1671_4809" x="7.56097" y="9.95795" width="16.8761" height="8.07434" filterUnits="userSpaceOnUse" color-interpolation-filters="sRGB">
<feFlood flood-opacity="0" result="BackgroundImageFix"/>
<feBlend mode="normal" in="SourceGraphic" in2="BackgroundImageFix" result="shape"/>
<feGaussianBlur stdDeviation="0.228059" result="effect1_foregroundBlur_1671_4809"/>
</filter>
<filter id="filter9_f_1671_4809" x="5.9657" y="8.703" width="20.0691" height="14.596" filterUnits="userSpaceOnUse" color-interpolation-filters="sRGB">
<feFlood flood-opacity="0" result="BackgroundImageFix"/>
<feBlend mode="normal" in="SourceGraphic" in2="BackgroundImageFix" result="shape"/>
<feGaussianBlur stdDeviation="0.456117" result="effect1_foregroundBlur_1671_4809"/>
</filter>
<linearGradient id="paint0_linear_1671_4809" x1="8.21011" y1="0" x2="8.21011" y2="10.9468" gradientUnits="userSpaceOnUse">
<stop offset="0.130208" stop-color="#EEF0F1"/>
<stop offset="0.848958" stop-color="#F9FAFA"/>
</linearGradient>
<linearGradient id="paint1_linear_1671_4809" x1="8.21011" y1="0" x2="8.21011" y2="10.9468" gradientUnits="userSpaceOnUse">
<stop stop-color="#475569" stop-opacity="0.06"/>
<stop offset="1" stop-color="#475569" stop-opacity="0.04"/>
</linearGradient>
<linearGradient id="paint2_linear_1671_4809" x1="16.0001" y1="14.4048" x2="16.0001" y2="21.4746" gradientUnits="userSpaceOnUse">
<stop offset="0.524194" stop-color="#F4F5F6"/>
<stop offset="1" stop-color="#EEF0F1"/>
</linearGradient>
<linearGradient id="paint3_linear_1671_4809" x1="16.0001" y1="10.5293" x2="16.0001" y2="17.5991" gradientUnits="userSpaceOnUse">
<stop offset="0.25" stop-color="#FAFAFB"/>
<stop offset="1" stop-color="#F4F5F6"/>
</linearGradient>
<linearGradient id="paint4_linear_1671_4809" x1="16.0001" y1="10.6297" x2="16.0001" y2="21.4742" gradientUnits="userSpaceOnUse">
<stop stop-color="#F9FAFA"/>
<stop offset="0.693396" stop-color="#EEF0F1"/>
</linearGradient>
</defs>
</svg>
