<svg width="32" height="32" viewBox="0 0 32 32" fill="none" xmlns="http://www.w3.org/2000/svg">
<rect width="32" height="32" rx="16" fill="#BA808E"/>
<path d="M8.90246 15.434C8.90246 15.434 15.4128 12.692 17.6706 11.7265C18.5362 11.3403 21.4715 10.1044 21.4715 10.1044C21.4715 10.1044 22.8262 9.56375 22.7133 10.8768C22.6757 11.4175 22.3746 13.3099 22.0736 15.3568C21.622 18.2534 21.1328 21.4202 21.1328 21.4202C21.1328 21.4202 21.0575 22.3085 20.4178 22.463C19.7781 22.6175 18.7243 21.9223 18.5362 21.7678C18.3856 21.652 15.7138 19.914 14.7354 19.0644C14.4719 18.8327 14.1709 18.3692 14.773 17.8285C16.1278 16.5541 17.7459 14.9706 18.7243 13.9665C19.1759 13.503 19.6275 12.4217 17.7459 13.7347C15.0741 15.6272 12.4398 17.4037 12.4398 17.4037C12.4398 17.4037 11.8377 17.7899 10.7088 17.4423C9.57979 17.0948 8.26268 16.6313 8.26268 16.6313C8.26268 16.6313 7.35957 16.052 8.90246 15.434Z" fill="white"/>
</svg>
