<svg width="32" height="32" viewBox="0 0 32 32" fill="none" xmlns="http://www.w3.org/2000/svg">
<rect width="32" height="32" rx="16" fill="#BA808E"/>
<path d="M8 23.4088L9.14796 19.1404C8.22216 17.4776 7.92802 15.5373 8.31953 13.6755C8.71103 11.8137 9.76191 10.1553 11.2793 9.00462C12.7968 7.85393 14.6789 7.28813 16.5805 7.41106C18.4821 7.53399 20.2754 8.33739 21.6315 9.67385C22.9876 11.0103 23.8155 12.7902 23.9632 14.6868C24.111 16.5835 23.5686 18.4697 22.4358 19.9994C21.3029 21.529 19.6555 22.5995 17.7958 23.0145C15.9362 23.4294 13.989 23.1609 12.3116 22.2582L8 23.4088ZM12.5195 20.6609L12.7862 20.8188C14.0011 21.5378 15.4202 21.8353 16.8222 21.665C18.2242 21.4947 19.5304 20.8662 20.5372 19.8774C21.544 18.8886 22.195 17.5951 22.3886 16.1984C22.5821 14.8018 22.3075 13.3804 21.6075 12.1558C20.9074 10.9312 19.8212 9.97219 18.5182 9.42823C17.2152 8.88427 15.7686 8.7859 14.4038 9.14845C13.0389 9.511 11.8325 10.3141 10.9726 11.4326C10.1127 12.5511 9.64754 13.9222 9.64963 15.3322C9.64849 16.5013 9.97236 17.6478 10.5852 18.644L10.7524 18.9193L10.1106 21.3016L12.5195 20.6609Z" fill="white"/>
<path fill-rule="evenodd" clip-rule="evenodd" d="M18.9918 16.4263C18.8355 16.3004 18.6525 16.2118 18.4567 16.1673C18.2608 16.1227 18.0574 16.1233 17.8619 16.1691C17.5681 16.291 17.3783 16.7512 17.1885 16.9813C17.1485 17.0365 17.0897 17.0751 17.0231 17.0901C16.9565 17.1051 16.8868 17.0952 16.8269 17.0625C15.7514 16.642 14.8499 15.8708 14.2689 14.8742C14.2193 14.812 14.1959 14.733 14.2035 14.6539C14.211 14.5748 14.2491 14.5017 14.3096 14.45C14.5213 14.2408 14.6767 13.9816 14.7615 13.6965C14.7803 13.382 14.7082 13.0688 14.5536 12.7941C14.4341 12.409 14.2067 12.0661 13.8983 11.806C13.7392 11.7345 13.5628 11.7106 13.3904 11.737C13.218 11.7634 13.0569 11.8391 12.9266 11.9549C12.7004 12.1497 12.5208 12.3927 12.4011 12.6661C12.2815 12.9394 12.2247 13.236 12.2351 13.5341C12.2358 13.7015 12.257 13.8682 12.2984 14.0304C12.4033 14.4202 12.5647 14.7926 12.7774 15.1359C12.9309 15.3988 13.0984 15.6533 13.2791 15.8984C13.8664 16.7033 14.6047 17.3868 15.453 17.9108C15.8787 18.1771 16.3336 18.3936 16.8089 18.556C17.3025 18.7794 17.8476 18.8652 18.3862 18.8042C18.693 18.7578 18.9838 18.6368 19.2328 18.4519C19.4819 18.267 19.6816 18.0239 19.8144 17.7438C19.8924 17.5747 19.9161 17.3855 19.8822 17.2024C19.8008 16.8279 19.2991 16.6068 18.9918 16.4263Z" fill="white"/>
</svg>
