<svg width="24" height="25" viewBox="0 0 24 25" fill="none" xmlns="http://www.w3.org/2000/svg">
<path d="M12 7.68359L10.95 10.3459C10.8158 10.6862 10.7487 10.8564 10.6459 10.9999C10.5548 11.1271 10.4435 11.2384 10.3163 11.3295C10.1728 11.4323 10.0026 11.4994 9.6623 11.6336L7 12.6836L9.6623 13.7336C10.0026 13.8678 10.1728 13.9349 10.3163 14.0377C10.4435 14.1288 10.5548 14.2401 10.6459 14.3673C10.7487 14.5108 10.8158 14.681 10.95 15.0213L12 17.6836L13.05 15.0213C13.1842 14.681 13.2513 14.5108 13.3541 14.3673C13.4452 14.2401 13.5565 14.1288 13.6837 14.0377C13.8272 13.9349 13.9974 13.8678 14.3377 13.7336L17 12.6836L14.3377 11.6336C13.9974 11.4994 13.8272 11.4323 13.6837 11.3295C13.5565 11.2384 13.4452 11.1271 13.3541 10.9999C13.2513 10.8564 13.1842 10.6862 13.05 10.3459L12 7.68359Z" fill="#6378AF" stroke="#6378AF" stroke-linecap="round" stroke-linejoin="round"/>
</svg>
